<mxfile host="app.diagrams.net" modified="2024-03-26T13:39:19.381Z" agent="Mozilla/5.0 (Windows NT 10.0; Win64; x64) AppleWebKit/537.36 (KHTML, like Gecko) Chrome/122.0.0.0 Safari/537.36" etag="G-Ee8c0YjdpQa1YDdi-3" version="24.1.0" type="device">
  <diagram name="Page-1" id="Rg1wvmKeIK1ApaawC0lj">
    <mxGraphModel dx="1709" dy="893" grid="1" gridSize="10" guides="1" tooltips="1" connect="1" arrows="1" fold="1" page="1" pageScale="1" pageWidth="850" pageHeight="1100" math="0" shadow="0">
      <root>
        <mxCell id="0" />
        <mxCell id="1" parent="0" />
        <mxCell id="izBGRy2q3cdgwRrHEA5k-1" value="Main Thread" style="rounded=1;whiteSpace=wrap;html=1;" vertex="1" parent="1">
          <mxGeometry x="120" y="360" width="120" height="60" as="geometry" />
        </mxCell>
        <mxCell id="izBGRy2q3cdgwRrHEA5k-24" style="edgeStyle=orthogonalEdgeStyle;rounded=0;orthogonalLoop=1;jettySize=auto;html=1;exitX=0.5;exitY=1;exitDx=0;exitDy=0;exitPerimeter=0;entryX=0.5;entryY=0;entryDx=0;entryDy=0;" edge="1" parent="1" source="izBGRy2q3cdgwRrHEA5k-2" target="izBGRy2q3cdgwRrHEA5k-23">
          <mxGeometry relative="1" as="geometry" />
        </mxCell>
        <mxCell id="izBGRy2q3cdgwRrHEA5k-2" value="Main Thread&lt;div&gt;Local&amp;nbsp;&lt;span style=&quot;background-color: initial;&quot;&gt;Context&lt;/span&gt;&lt;/div&gt;" style="shape=cylinder3;whiteSpace=wrap;html=1;boundedLbl=1;backgroundOutline=1;size=15;" vertex="1" parent="1">
          <mxGeometry x="120" y="440" width="120" height="80" as="geometry" />
        </mxCell>
        <mxCell id="izBGRy2q3cdgwRrHEA5k-5" value="Runner Thread" style="rounded=1;whiteSpace=wrap;html=1;" vertex="1" parent="1">
          <mxGeometry x="400" y="360" width="120" height="60" as="geometry" />
        </mxCell>
        <mxCell id="izBGRy2q3cdgwRrHEA5k-40" style="edgeStyle=orthogonalEdgeStyle;rounded=0;orthogonalLoop=1;jettySize=auto;html=1;exitX=0.5;exitY=1;exitDx=0;exitDy=0;exitPerimeter=0;entryX=0.5;entryY=0;entryDx=0;entryDy=0;" edge="1" parent="1" source="izBGRy2q3cdgwRrHEA5k-6" target="izBGRy2q3cdgwRrHEA5k-25">
          <mxGeometry relative="1" as="geometry" />
        </mxCell>
        <mxCell id="izBGRy2q3cdgwRrHEA5k-41" style="edgeStyle=orthogonalEdgeStyle;rounded=0;orthogonalLoop=1;jettySize=auto;html=1;exitX=0.5;exitY=1;exitDx=0;exitDy=0;exitPerimeter=0;entryX=0.5;entryY=0;entryDx=0;entryDy=0;" edge="1" parent="1" source="izBGRy2q3cdgwRrHEA5k-6" target="izBGRy2q3cdgwRrHEA5k-35">
          <mxGeometry relative="1" as="geometry" />
        </mxCell>
        <mxCell id="izBGRy2q3cdgwRrHEA5k-6" value="Global&lt;div&gt;Context&lt;/div&gt;" style="shape=cylinder3;whiteSpace=wrap;html=1;boundedLbl=1;backgroundOutline=1;size=15;" vertex="1" parent="1">
          <mxGeometry x="400" y="440" width="120" height="80" as="geometry" />
        </mxCell>
        <mxCell id="izBGRy2q3cdgwRrHEA5k-11" style="edgeStyle=orthogonalEdgeStyle;rounded=0;orthogonalLoop=1;jettySize=auto;html=1;exitX=0.5;exitY=1;exitDx=0;exitDy=0;entryX=0.5;entryY=0;entryDx=0;entryDy=0;entryPerimeter=0;" edge="1" parent="1" source="izBGRy2q3cdgwRrHEA5k-5" target="izBGRy2q3cdgwRrHEA5k-6">
          <mxGeometry relative="1" as="geometry" />
        </mxCell>
        <mxCell id="izBGRy2q3cdgwRrHEA5k-15" style="edgeStyle=orthogonalEdgeStyle;rounded=0;orthogonalLoop=1;jettySize=auto;html=1;exitX=0.5;exitY=1;exitDx=0;exitDy=0;entryX=0.5;entryY=0;entryDx=0;entryDy=0;entryPerimeter=0;" edge="1" parent="1" source="izBGRy2q3cdgwRrHEA5k-1" target="izBGRy2q3cdgwRrHEA5k-2">
          <mxGeometry relative="1" as="geometry" />
        </mxCell>
        <mxCell id="izBGRy2q3cdgwRrHEA5k-22" style="edgeStyle=orthogonalEdgeStyle;rounded=0;orthogonalLoop=1;jettySize=auto;html=1;exitX=0.5;exitY=1;exitDx=0;exitDy=0;" edge="1" parent="1" source="izBGRy2q3cdgwRrHEA5k-23">
          <mxGeometry relative="1" as="geometry">
            <mxPoint x="180" y="590" as="sourcePoint" />
            <mxPoint x="180" y="590" as="targetPoint" />
          </mxGeometry>
        </mxCell>
        <mxCell id="izBGRy2q3cdgwRrHEA5k-25" value="Main Thread Rx" style="rounded=0;whiteSpace=wrap;html=1;" vertex="1" parent="1">
          <mxGeometry x="340" y="560" width="100" height="60" as="geometry" />
        </mxCell>
        <mxCell id="izBGRy2q3cdgwRrHEA5k-29" value="Other Thread" style="rounded=1;whiteSpace=wrap;html=1;" vertex="1" parent="1">
          <mxGeometry x="680" y="360" width="120" height="60" as="geometry" />
        </mxCell>
        <mxCell id="izBGRy2q3cdgwRrHEA5k-30" style="edgeStyle=orthogonalEdgeStyle;rounded=0;orthogonalLoop=1;jettySize=auto;html=1;exitX=0.5;exitY=1;exitDx=0;exitDy=0;exitPerimeter=0;entryX=0.5;entryY=0;entryDx=0;entryDy=0;" edge="1" parent="1" source="izBGRy2q3cdgwRrHEA5k-31" target="izBGRy2q3cdgwRrHEA5k-34">
          <mxGeometry relative="1" as="geometry" />
        </mxCell>
        <mxCell id="izBGRy2q3cdgwRrHEA5k-31" value="Other Thread&lt;div&gt;Local&amp;nbsp;&lt;span style=&quot;background-color: initial;&quot;&gt;Context&lt;/span&gt;&lt;/div&gt;" style="shape=cylinder3;whiteSpace=wrap;html=1;boundedLbl=1;backgroundOutline=1;size=15;" vertex="1" parent="1">
          <mxGeometry x="680" y="440" width="120" height="80" as="geometry" />
        </mxCell>
        <mxCell id="izBGRy2q3cdgwRrHEA5k-32" style="edgeStyle=orthogonalEdgeStyle;rounded=0;orthogonalLoop=1;jettySize=auto;html=1;exitX=0.5;exitY=1;exitDx=0;exitDy=0;entryX=0.5;entryY=0;entryDx=0;entryDy=0;entryPerimeter=0;" edge="1" parent="1" source="izBGRy2q3cdgwRrHEA5k-29" target="izBGRy2q3cdgwRrHEA5k-31">
          <mxGeometry relative="1" as="geometry" />
        </mxCell>
        <mxCell id="izBGRy2q3cdgwRrHEA5k-33" style="edgeStyle=orthogonalEdgeStyle;rounded=0;orthogonalLoop=1;jettySize=auto;html=1;exitX=0.5;exitY=1;exitDx=0;exitDy=0;" edge="1" parent="1">
          <mxGeometry relative="1" as="geometry">
            <mxPoint x="740" y="590" as="sourcePoint" />
            <mxPoint x="740" y="590" as="targetPoint" />
          </mxGeometry>
        </mxCell>
        <mxCell id="izBGRy2q3cdgwRrHEA5k-34" value="Other Thread Tx" style="rounded=0;whiteSpace=wrap;html=1;" vertex="1" parent="1">
          <mxGeometry x="690" y="560" width="100" height="60" as="geometry" />
        </mxCell>
        <mxCell id="izBGRy2q3cdgwRrHEA5k-35" value="Other Thread Rx" style="rounded=0;whiteSpace=wrap;html=1;" vertex="1" parent="1">
          <mxGeometry x="480" y="560" width="100" height="60" as="geometry" />
        </mxCell>
        <mxCell id="izBGRy2q3cdgwRrHEA5k-42" value="" style="edgeStyle=orthogonalEdgeStyle;rounded=0;orthogonalLoop=1;jettySize=auto;html=1;exitX=0.5;exitY=1;exitDx=0;exitDy=0;" edge="1" parent="1" target="izBGRy2q3cdgwRrHEA5k-23">
          <mxGeometry relative="1" as="geometry">
            <mxPoint x="180" y="590" as="sourcePoint" />
            <mxPoint x="180" y="590" as="targetPoint" />
          </mxGeometry>
        </mxCell>
        <mxCell id="izBGRy2q3cdgwRrHEA5k-23" value="Main Thread Tx" style="rounded=0;whiteSpace=wrap;html=1;" vertex="1" parent="1">
          <mxGeometry x="130" y="560" width="100" height="60" as="geometry" />
        </mxCell>
        <mxCell id="izBGRy2q3cdgwRrHEA5k-46" value="SPSC Queue" style="html=1;shadow=0;dashed=0;align=center;verticalAlign=middle;shape=mxgraph.arrows2.arrow;dy=0.6;dx=40;notch=0;" vertex="1" parent="1">
          <mxGeometry x="230" y="555" width="110" height="70" as="geometry" />
        </mxCell>
        <mxCell id="izBGRy2q3cdgwRrHEA5k-48" value="SPSC Queue" style="html=1;shadow=0;dashed=0;align=center;verticalAlign=middle;shape=mxgraph.arrows2.arrow;dy=0.6;dx=40;flipH=1;notch=0;" vertex="1" parent="1">
          <mxGeometry x="580" y="555" width="110" height="70" as="geometry" />
        </mxCell>
      </root>
    </mxGraphModel>
  </diagram>
</mxfile>
